<svg xmlns="http://www.w3.org/2000/svg" width="84" height="23" fill="none"><g clip-path="url(#a)"><path fill="#E60021" d="M28.482 2.981A19 19 0 0 1 28.84.002h-6.803c.176.834.318 1.952.36 2.979.018.454.034 1.358.034 1.896v13.062c0 .54-.016 1.44-.035 1.895a19.167 19.167 0 0 1-.359 2.98h6.803a18.997 18.997 0 0 1-.358-2.98 62.585 62.585 0 0 1-.035-1.895V4.877c0-.538.017-1.442.035-1.896Zm31.628 0c.042-1.027.185-2.145.361-2.979h-6.805c.175.834.318 1.952.358 2.979.02.454.036 1.358.036 1.896v13.062c0 .54-.015 1.44-.037 1.895a19.006 19.006 0 0 1-.357 2.98h6.805a19.176 19.176 0 0 1-.361-2.98 64.28 64.28 0 0 1-.034-1.895V4.877c0-.538.017-1.442.034-1.896Zm23.5 19.829V4.876c0-.538.015-1.44.035-1.895.038-1.026.184-2.145.355-2.98h-4.72c.175.835.318 1.954.358 2.98.017.455.034 1.358.034 1.895v10.455a37.585 37.585 0 0 0-1.09-2.289c-.468-.875-7.05-13.038-7.05-13.038L63.983.002c.175.834.318 1.953.36 2.98.017.454.034 1.357.034 1.895V17.94c0 .538-.017 1.44-.034 1.894a19.282 19.282 0 0 1-.36 2.98h4.724a18.879 18.879 0 0 1-.359-2.98 58.357 58.357 0 0 1-.034-1.895V6.442a53.388 53.388 0 0 0 1.718 3.575c1.342 2.504 3.685 6.735 5.545 9.56 1.548 2.341 2.792 3.21 5.96 3.236l2.072-.003ZM19.287.002 13.165 0c-.475 2.327-2.239 4.654-3.975 6.969a49.136 49.136 0 0 1-2.78 3.362V4.876c0-.538.016-1.44.035-1.896.04-1.025.183-2.144.358-2.978H0C.176.836.319 1.955.36 2.98c.018.456.033 1.358.033 1.896V17.94c0 .54-.015 1.44-.033 1.895a19.124 19.124 0 0 1-.36 2.98h6.803a19.096 19.096 0 0 1-.358-2.98 60.14 60.14 0 0 1-.035-1.895v-6.386c1.169 2.335 2.472 5.047 4.053 7.686 1.56 2.606 3.023 3.761 6.57 3.761 1.188 0 2.335-.067 3.557-.199-1.878-1.963-5.61-8.048-8.316-13.17L19.287 0Zm27.01 12.723c2.653-1.385 3.698-3.479 3.698-6.16 0-1.778-.72-3.766-2.284-4.962C46.284.515 44.634.185 42.533.085a56.06 56.06 0 0 0-3.27-.083h-7.121c.174.834.318 1.952.358 2.979.02.455.035 1.357.035 1.895v13.063c0 .539-.015 1.44-.035 1.895a19.097 19.097 0 0 1-.358 2.98h6.803a19.21 19.21 0 0 1-.36-2.98 65.663 65.663 0 0 1-.032-1.895V4.876c0-.422.01-1.068.022-1.546.306-.04.804-.066 1.178-.066.614 0 1.178.046 1.725.185 1.76.447 2.688 1.77 2.688 3.699 0 2.876-1.83 4.188-4.848 4.735.894 2.057 2.113 4.893 3.277 7.09 1.816 3.432 3.511 4.025 6.95 4.025a26.8 26.8 0 0 0 3.043-.185c-2.245-2.302-5.438-8.8-6.29-10.087Z"/></g><defs><clipPath id="a"><path fill="#fff" d="M0 0h84v23H0z"/></clipPath></defs></svg>